<?xml version="1.0"?><svg xmlns="http://www.w3.org/2000/svg" version="1.1" width="120" height="60">


<defs><clipPath id="chart0-0"><rect x="-3.000000" y="-0.500000" width="6.000000" height="3.000000" /></clipPath></defs>
<g transform="translate(0.000000 60.000000) scale(20.000000 -20.000000) translate(3.000000 0.500000)">

<!-- Horiz labels -->
<line x1="-3.000000" y1="-0.500000" x2="-3.000000" y2="2.500000" style="stroke:#c0c0c0;stroke-width:0.010000"/>
<line x1="-2.500000" y1="-0.500000" x2="-2.500000" y2="2.500000" style="stroke:#c0c0c0;stroke-width:0.010000"/>
<line x1="-2.000000" y1="-0.500000" x2="-2.000000" y2="2.500000" style="stroke:#c0c0c0;stroke-width:0.010000"/>
<line x1="-1.500000" y1="-0.500000" x2="-1.500000" y2="2.500000" style="stroke:#c0c0c0;stroke-width:0.010000"/>
<line x1="-1.000000" y1="-0.500000" x2="-1.000000" y2="2.500000" style="stroke:#c0c0c0;stroke-width:0.010000"/>
<line x1="-0.500000" y1="-0.500000" x2="-0.500000" y2="2.500000" style="stroke:#c0c0c0;stroke-width:0.010000"/>
<line x1="0.000000" y1="-0.500000" x2="0.000000" y2="2.500000" style="stroke:#000000;stroke-width:0.010000"/>
<line x1="0.500000" y1="-0.500000" x2="0.500000" y2="2.500000" style="stroke:#c0c0c0;stroke-width:0.010000"/>
<line x1="1.000000" y1="-0.500000" x2="1.000000" y2="2.500000" style="stroke:#c0c0c0;stroke-width:0.010000"/>
<line x1="1.500000" y1="-0.500000" x2="1.500000" y2="2.500000" style="stroke:#c0c0c0;stroke-width:0.010000"/>
<line x1="2.000000" y1="-0.500000" x2="2.000000" y2="2.500000" style="stroke:#c0c0c0;stroke-width:0.010000"/>
<line x1="2.500000" y1="-0.500000" x2="2.500000" y2="2.500000" style="stroke:#c0c0c0;stroke-width:0.010000"/>
<line x1="3.000000" y1="-0.500000" x2="3.000000" y2="2.500000" style="stroke:#c0c0c0;stroke-width:0.010000"/>


<!-- Vert labels -->
<line x1="-3.000000" y1="-0.500000" x2="3.000000" y2="-0.500000" style="stroke:#c0c0c0;stroke-width:0.010000"/>
<line x1="-3.000000" y1="0.000000" x2="3.000000" y2="0.000000" style="stroke:#000000;stroke-width:0.010000"/>
<line x1="-3.000000" y1="0.500000" x2="3.000000" y2="0.500000" style="stroke:#c0c0c0;stroke-width:0.010000"/>
<line x1="-3.000000" y1="1.000000" x2="3.000000" y2="1.000000" style="stroke:#c0c0c0;stroke-width:0.010000"/>
<line x1="-3.000000" y1="1.500000" x2="3.000000" y2="1.500000" style="stroke:#c0c0c0;stroke-width:0.010000"/>
<line x1="-3.000000" y1="2.000000" x2="3.000000" y2="2.000000" style="stroke:#c0c0c0;stroke-width:0.010000"/>
<line x1="-3.000000" y1="2.500000" x2="3.000000" y2="2.500000" style="stroke:#c0c0c0;stroke-width:0.010000"/>


<!-- Clipped region -->
<g clip-path="url(#chart0-0)">
<line x1="-3.000000" y1="0.000000" x2="-2.900000" y2="0.000000" style="stroke:#7f0000;stroke-width:0.025000"/>
<line x1="-2.900000" y1="0.000000" x2="-2.800000" y2="0.000000" style="stroke:#7f0000;stroke-width:0.025000"/>
<line x1="-2.800000" y1="0.000000" x2="-2.700000" y2="0.000000" style="stroke:#7f0000;stroke-width:0.025000"/>
<line x1="-2.700000" y1="0.000000" x2="-2.600000" y2="0.000000" style="stroke:#7f0000;stroke-width:0.025000"/>
<line x1="-2.600000" y1="0.000000" x2="-2.500000" y2="0.000000" style="stroke:#7f0000;stroke-width:0.025000"/>
<line x1="-2.500000" y1="0.000000" x2="-2.400000" y2="0.000000" style="stroke:#7f0000;stroke-width:0.025000"/>
<line x1="-2.400000" y1="0.000000" x2="-2.300000" y2="0.000000" style="stroke:#7f0000;stroke-width:0.025000"/>
<line x1="-2.300000" y1="0.000000" x2="-2.200000" y2="0.000000" style="stroke:#7f0000;stroke-width:0.025000"/>
<line x1="-2.200000" y1="0.000000" x2="-2.100000" y2="0.000000" style="stroke:#7f0000;stroke-width:0.025000"/>
<line x1="-2.100000" y1="0.000000" x2="-2.000000" y2="0.000000" style="stroke:#7f0000;stroke-width:0.025000"/>
<line x1="-2.000000" y1="0.000000" x2="-1.900000" y2="0.000000" style="stroke:#7f0000;stroke-width:0.025000"/>
<line x1="-1.900000" y1="0.000000" x2="-1.800000" y2="0.000000" style="stroke:#7f0000;stroke-width:0.025000"/>
<line x1="-1.800000" y1="0.000000" x2="-1.700000" y2="0.000000" style="stroke:#7f0000;stroke-width:0.025000"/>
<line x1="-1.700000" y1="0.000000" x2="-1.600000" y2="0.000000" style="stroke:#7f0000;stroke-width:0.025000"/>
<line x1="-1.600000" y1="0.000000" x2="-1.500000" y2="0.000000" style="stroke:#7f0000;stroke-width:0.025000"/>
<line x1="-1.500000" y1="0.000000" x2="-1.400000" y2="0.000000" style="stroke:#7f0000;stroke-width:0.025000"/>
<line x1="-1.400000" y1="0.000000" x2="-1.300000" y2="0.000000" style="stroke:#7f0000;stroke-width:0.025000"/>
<line x1="-1.300000" y1="0.000000" x2="-1.200000" y2="0.000000" style="stroke:#7f0000;stroke-width:0.025000"/>
<line x1="-1.200000" y1="0.000000" x2="-1.100000" y2="0.000000" style="stroke:#7f0000;stroke-width:0.025000"/>
<line x1="-1.100000" y1="0.000000" x2="-1.000000" y2="0.000000" style="stroke:#7f0000;stroke-width:0.025000"/>
<line x1="-1.000000" y1="0.000000" x2="-0.900000" y2="0.000000" style="stroke:#7f0000;stroke-width:0.025000"/>
<line x1="-0.900000" y1="0.000000" x2="-0.800000" y2="0.000000" style="stroke:#7f0000;stroke-width:0.025000"/>
<line x1="-0.800000" y1="0.000000" x2="-0.700000" y2="0.000000" style="stroke:#7f0000;stroke-width:0.025000"/>
<line x1="-0.700000" y1="0.000000" x2="-0.600000" y2="0.000000" style="stroke:#7f0000;stroke-width:0.025000"/>
<line x1="-0.600000" y1="0.000000" x2="-0.500000" y2="0.000000" style="stroke:#7f0000;stroke-width:0.025000"/>
<line x1="-0.500000" y1="0.000000" x2="-0.400000" y2="0.000000" style="stroke:#7f0000;stroke-width:0.025000"/>
<line x1="-0.400000" y1="0.000000" x2="-0.300000" y2="0.000000" style="stroke:#7f0000;stroke-width:0.025000"/>
<line x1="-0.300000" y1="0.000000" x2="-0.200000" y2="0.000000" style="stroke:#7f0000;stroke-width:0.025000"/>
<line x1="-0.200000" y1="0.000000" x2="-0.100000" y2="0.000000" style="stroke:#7f0000;stroke-width:0.025000"/>
<line x1="-0.100000" y1="0.000000" x2="0.000000" y2="0.000000" style="stroke:#7f0000;stroke-width:0.025000"/>
<line x1="0.000000" y1="0.000000" x2="0.100000" y2="0.100000" style="stroke:#7f0000;stroke-width:0.035355"/>
<line x1="0.100000" y1="0.100000" x2="0.200000" y2="0.200000" style="stroke:#7f0000;stroke-width:0.035355"/>
<line x1="0.200000" y1="0.200000" x2="0.300000" y2="0.300000" style="stroke:#7f0000;stroke-width:0.035355"/>
<line x1="0.300000" y1="0.300000" x2="0.400000" y2="0.400000" style="stroke:#7f0000;stroke-width:0.035355"/>
<line x1="0.400000" y1="0.400000" x2="0.500000" y2="0.500000" style="stroke:#7f0000;stroke-width:0.035355"/>
<line x1="0.500000" y1="0.500000" x2="0.600000" y2="0.600000" style="stroke:#7f0000;stroke-width:0.035355"/>
<line x1="0.600000" y1="0.600000" x2="0.700000" y2="0.700000" style="stroke:#7f0000;stroke-width:0.035355"/>
<line x1="0.700000" y1="0.700000" x2="0.800000" y2="0.800000" style="stroke:#7f0000;stroke-width:0.035355"/>
<line x1="0.800000" y1="0.800000" x2="0.900000" y2="0.900000" style="stroke:#7f0000;stroke-width:0.035355"/>
<line x1="0.900000" y1="0.900000" x2="1.000000" y2="1.000000" style="stroke:#7f0000;stroke-width:0.035355"/>
<line x1="1.000000" y1="1.000000" x2="1.100000" y2="1.100000" style="stroke:#7f0000;stroke-width:0.035355"/>
<line x1="1.100000" y1="1.100000" x2="1.200000" y2="1.200000" style="stroke:#7f0000;stroke-width:0.035355"/>
<line x1="1.200000" y1="1.200000" x2="1.300000" y2="1.300000" style="stroke:#7f0000;stroke-width:0.035355"/>
<line x1="1.300000" y1="1.300000" x2="1.400000" y2="1.400000" style="stroke:#7f0000;stroke-width:0.035355"/>
<line x1="1.400000" y1="1.400000" x2="1.500000" y2="1.500000" style="stroke:#7f0000;stroke-width:0.035355"/>
<line x1="1.500000" y1="1.500000" x2="1.600000" y2="1.600000" style="stroke:#7f0000;stroke-width:0.035355"/>
<line x1="1.600000" y1="1.600000" x2="1.700000" y2="1.700000" style="stroke:#7f0000;stroke-width:0.035355"/>
<line x1="1.700000" y1="1.700000" x2="1.800000" y2="1.800000" style="stroke:#7f0000;stroke-width:0.035355"/>
<line x1="1.800000" y1="1.800000" x2="1.900000" y2="1.900000" style="stroke:#7f0000;stroke-width:0.035355"/>
<line x1="1.900000" y1="1.900000" x2="2.000000" y2="2.000000" style="stroke:#7f0000;stroke-width:0.035355"/>
<line x1="2.000000" y1="2.000000" x2="2.100000" y2="2.100000" style="stroke:#7f0000;stroke-width:0.035355"/>
<line x1="2.100000" y1="2.100000" x2="2.200000" y2="2.200000" style="stroke:#7f0000;stroke-width:0.035355"/>
<line x1="2.200000" y1="2.200000" x2="2.300000" y2="2.300000" style="stroke:#7f0000;stroke-width:0.035355"/>
<line x1="2.300000" y1="2.300000" x2="2.400000" y2="2.400000" style="stroke:#7f0000;stroke-width:0.035355"/>
<line x1="2.400000" y1="2.400000" x2="2.500000" y2="2.500000" style="stroke:#7f0000;stroke-width:0.035355"/>
<line x1="2.500000" y1="2.500000" x2="2.600000" y2="2.600000" style="stroke:#7f0000;stroke-width:0.035355"/>
<line x1="2.600000" y1="2.600000" x2="2.700000" y2="2.700000" style="stroke:#7f0000;stroke-width:0.035355"/>
<line x1="2.700000" y1="2.700000" x2="2.800000" y2="2.800000" style="stroke:#7f0000;stroke-width:0.035355"/>
<line x1="2.800000" y1="2.800000" x2="2.900000" y2="2.900000" style="stroke:#7f0000;stroke-width:0.035355"/>
<line x1="2.900000" y1="2.900000" x2="3.000000" y2="3.000000" style="stroke:#7f0000;stroke-width:0.035355"/>
</g></g>

</svg>
