<?xml version="1.0" encoding="utf-8" standalone="no"?>
<!DOCTYPE svg PUBLIC "-//W3C//DTD SVG 1.1//EN"
  "http://www.w3.org/Graphics/SVG/1.1/DTD/svg11.dtd">
<!-- Created with matplotlib (https://matplotlib.org/) -->
<svg height="345.6pt" version="1.1" viewBox="0 0 460.8 345.6" width="460.8pt" xmlns="http://www.w3.org/2000/svg" xmlns:xlink="http://www.w3.org/1999/xlink">
 <defs>
  <style type="text/css">
*{stroke-linecap:butt;stroke-linejoin:round;}
  </style>
 </defs>
 <g id="figure_1">
  <g id="patch_1">
   <path d="M 0 345.6 
L 460.8 345.6 
L 460.8 0 
L 0 0 
z
" style="fill:#ffffff;"/>
  </g>
  <g id="axes_1">
   <g id="patch_2">
    <path d="M 57.6 307.584 
L 414.72 307.584 
L 414.72 41.472 
L 57.6 41.472 
z
" style="fill:#ffffff;"/>
   </g>
   <g id="matplotlib.axis_1">
    <g id="xtick_1">
     <g id="line2d_1">
      <path clip-path="url(#p5a2a467822)" d="M 93.276324 307.584 
L 93.276324 41.472 
" style="fill:none;stroke:#b0b0b0;stroke-linecap:square;stroke-width:0.8;"/>
     </g>
     <g id="line2d_2">
      <defs>
       <path d="M 0 0 
L 0 3.5 
" id="mdc0711cc7d" style="stroke:#000000;stroke-width:0.8;"/>
      </defs>
      <g>
       <use style="stroke:#000000;stroke-width:0.8;" x="93.276324" xlink:href="#mdc0711cc7d" y="307.584"/>
      </g>
     </g>
     <g id="text_1">
      <!-- 600 -->
      <defs>
       <path d="M 33.015625 40.375 
Q 26.375 40.375 22.484375 35.828125 
Q 18.609375 31.296875 18.609375 23.390625 
Q 18.609375 15.53125 22.484375 10.953125 
Q 26.375 6.390625 33.015625 6.390625 
Q 39.65625 6.390625 43.53125 10.953125 
Q 47.40625 15.53125 47.40625 23.390625 
Q 47.40625 31.296875 43.53125 35.828125 
Q 39.65625 40.375 33.015625 40.375 
z
M 52.59375 71.296875 
L 52.59375 62.3125 
Q 48.875 64.0625 45.09375 64.984375 
Q 41.3125 65.921875 37.59375 65.921875 
Q 27.828125 65.921875 22.671875 59.328125 
Q 17.53125 52.734375 16.796875 39.40625 
Q 19.671875 43.65625 24.015625 45.921875 
Q 28.375 48.1875 33.59375 48.1875 
Q 44.578125 48.1875 50.953125 41.515625 
Q 57.328125 34.859375 57.328125 23.390625 
Q 57.328125 12.15625 50.6875 5.359375 
Q 44.046875 -1.421875 33.015625 -1.421875 
Q 20.359375 -1.421875 13.671875 8.265625 
Q 6.984375 17.96875 6.984375 36.375 
Q 6.984375 53.65625 15.1875 63.9375 
Q 23.390625 74.21875 37.203125 74.21875 
Q 40.921875 74.21875 44.703125 73.484375 
Q 48.484375 72.75 52.59375 71.296875 
z
" id="DejaVuSans-54"/>
       <path d="M 31.78125 66.40625 
Q 24.171875 66.40625 20.328125 58.90625 
Q 16.5 51.421875 16.5 36.375 
Q 16.5 21.390625 20.328125 13.890625 
Q 24.171875 6.390625 31.78125 6.390625 
Q 39.453125 6.390625 43.28125 13.890625 
Q 47.125 21.390625 47.125 36.375 
Q 47.125 51.421875 43.28125 58.90625 
Q 39.453125 66.40625 31.78125 66.40625 
z
M 31.78125 74.21875 
Q 44.046875 74.21875 50.515625 64.515625 
Q 56.984375 54.828125 56.984375 36.375 
Q 56.984375 17.96875 50.515625 8.265625 
Q 44.046875 -1.421875 31.78125 -1.421875 
Q 19.53125 -1.421875 13.0625 8.265625 
Q 6.59375 17.96875 6.59375 36.375 
Q 6.59375 54.828125 13.0625 64.515625 
Q 19.53125 74.21875 31.78125 74.21875 
z
" id="DejaVuSans-48"/>
      </defs>
      <g transform="translate(83.732574 322.182437)scale(0.1 -0.1)">
       <use xlink:href="#DejaVuSans-54"/>
       <use x="63.623047" xlink:href="#DejaVuSans-48"/>
       <use x="127.246094" xlink:href="#DejaVuSans-48"/>
      </g>
     </g>
    </g>
    <g id="xtick_2">
     <g id="line2d_3">
      <path clip-path="url(#p5a2a467822)" d="M 164.628971 307.584 
L 164.628971 41.472 
" style="fill:none;stroke:#b0b0b0;stroke-linecap:square;stroke-width:0.8;"/>
     </g>
     <g id="line2d_4">
      <g>
       <use style="stroke:#000000;stroke-width:0.8;" x="164.628971" xlink:href="#mdc0711cc7d" y="307.584"/>
      </g>
     </g>
     <g id="text_2">
      <!-- 800 -->
      <defs>
       <path d="M 31.78125 34.625 
Q 24.75 34.625 20.71875 30.859375 
Q 16.703125 27.09375 16.703125 20.515625 
Q 16.703125 13.921875 20.71875 10.15625 
Q 24.75 6.390625 31.78125 6.390625 
Q 38.8125 6.390625 42.859375 10.171875 
Q 46.921875 13.96875 46.921875 20.515625 
Q 46.921875 27.09375 42.890625 30.859375 
Q 38.875 34.625 31.78125 34.625 
z
M 21.921875 38.8125 
Q 15.578125 40.375 12.03125 44.71875 
Q 8.5 49.078125 8.5 55.328125 
Q 8.5 64.0625 14.71875 69.140625 
Q 20.953125 74.21875 31.78125 74.21875 
Q 42.671875 74.21875 48.875 69.140625 
Q 55.078125 64.0625 55.078125 55.328125 
Q 55.078125 49.078125 51.53125 44.71875 
Q 48 40.375 41.703125 38.8125 
Q 48.828125 37.15625 52.796875 32.3125 
Q 56.78125 27.484375 56.78125 20.515625 
Q 56.78125 9.90625 50.3125 4.234375 
Q 43.84375 -1.421875 31.78125 -1.421875 
Q 19.734375 -1.421875 13.25 4.234375 
Q 6.78125 9.90625 6.78125 20.515625 
Q 6.78125 27.484375 10.78125 32.3125 
Q 14.796875 37.15625 21.921875 38.8125 
z
M 18.3125 54.390625 
Q 18.3125 48.734375 21.84375 45.5625 
Q 25.390625 42.390625 31.78125 42.390625 
Q 38.140625 42.390625 41.71875 45.5625 
Q 45.3125 48.734375 45.3125 54.390625 
Q 45.3125 60.0625 41.71875 63.234375 
Q 38.140625 66.40625 31.78125 66.40625 
Q 25.390625 66.40625 21.84375 63.234375 
Q 18.3125 60.0625 18.3125 54.390625 
z
" id="DejaVuSans-56"/>
      </defs>
      <g transform="translate(155.085221 322.182437)scale(0.1 -0.1)">
       <use xlink:href="#DejaVuSans-56"/>
       <use x="63.623047" xlink:href="#DejaVuSans-48"/>
       <use x="127.246094" xlink:href="#DejaVuSans-48"/>
      </g>
     </g>
    </g>
    <g id="xtick_3">
     <g id="line2d_5">
      <path clip-path="url(#p5a2a467822)" d="M 235.981618 307.584 
L 235.981618 41.472 
" style="fill:none;stroke:#b0b0b0;stroke-linecap:square;stroke-width:0.8;"/>
     </g>
     <g id="line2d_6">
      <g>
       <use style="stroke:#000000;stroke-width:0.8;" x="235.981618" xlink:href="#mdc0711cc7d" y="307.584"/>
      </g>
     </g>
     <g id="text_3">
      <!-- 1000 -->
      <defs>
       <path d="M 12.40625 8.296875 
L 28.515625 8.296875 
L 28.515625 63.921875 
L 10.984375 60.40625 
L 10.984375 69.390625 
L 28.421875 72.90625 
L 38.28125 72.90625 
L 38.28125 8.296875 
L 54.390625 8.296875 
L 54.390625 0 
L 12.40625 0 
z
" id="DejaVuSans-49"/>
      </defs>
      <g transform="translate(223.256618 322.182437)scale(0.1 -0.1)">
       <use xlink:href="#DejaVuSans-49"/>
       <use x="63.623047" xlink:href="#DejaVuSans-48"/>
       <use x="127.246094" xlink:href="#DejaVuSans-48"/>
       <use x="190.869141" xlink:href="#DejaVuSans-48"/>
      </g>
     </g>
    </g>
    <g id="xtick_4">
     <g id="line2d_7">
      <path clip-path="url(#p5a2a467822)" d="M 307.334266 307.584 
L 307.334266 41.472 
" style="fill:none;stroke:#b0b0b0;stroke-linecap:square;stroke-width:0.8;"/>
     </g>
     <g id="line2d_8">
      <g>
       <use style="stroke:#000000;stroke-width:0.8;" x="307.334266" xlink:href="#mdc0711cc7d" y="307.584"/>
      </g>
     </g>
     <g id="text_4">
      <!-- 1200 -->
      <defs>
       <path d="M 19.1875 8.296875 
L 53.609375 8.296875 
L 53.609375 0 
L 7.328125 0 
L 7.328125 8.296875 
Q 12.9375 14.109375 22.625 23.890625 
Q 32.328125 33.6875 34.8125 36.53125 
Q 39.546875 41.84375 41.421875 45.53125 
Q 43.3125 49.21875 43.3125 52.78125 
Q 43.3125 58.59375 39.234375 62.25 
Q 35.15625 65.921875 28.609375 65.921875 
Q 23.96875 65.921875 18.8125 64.3125 
Q 13.671875 62.703125 7.8125 59.421875 
L 7.8125 69.390625 
Q 13.765625 71.78125 18.9375 73 
Q 24.125 74.21875 28.421875 74.21875 
Q 39.75 74.21875 46.484375 68.546875 
Q 53.21875 62.890625 53.21875 53.421875 
Q 53.21875 48.921875 51.53125 44.890625 
Q 49.859375 40.875 45.40625 35.40625 
Q 44.1875 33.984375 37.640625 27.21875 
Q 31.109375 20.453125 19.1875 8.296875 
z
" id="DejaVuSans-50"/>
      </defs>
      <g transform="translate(294.609266 322.182437)scale(0.1 -0.1)">
       <use xlink:href="#DejaVuSans-49"/>
       <use x="63.623047" xlink:href="#DejaVuSans-50"/>
       <use x="127.246094" xlink:href="#DejaVuSans-48"/>
       <use x="190.869141" xlink:href="#DejaVuSans-48"/>
      </g>
     </g>
    </g>
    <g id="xtick_5">
     <g id="line2d_9">
      <path clip-path="url(#p5a2a467822)" d="M 378.686913 307.584 
L 378.686913 41.472 
" style="fill:none;stroke:#b0b0b0;stroke-linecap:square;stroke-width:0.8;"/>
     </g>
     <g id="line2d_10">
      <g>
       <use style="stroke:#000000;stroke-width:0.8;" x="378.686913" xlink:href="#mdc0711cc7d" y="307.584"/>
      </g>
     </g>
     <g id="text_5">
      <!-- 1400 -->
      <defs>
       <path d="M 37.796875 64.3125 
L 12.890625 25.390625 
L 37.796875 25.390625 
z
M 35.203125 72.90625 
L 47.609375 72.90625 
L 47.609375 25.390625 
L 58.015625 25.390625 
L 58.015625 17.1875 
L 47.609375 17.1875 
L 47.609375 0 
L 37.796875 0 
L 37.796875 17.1875 
L 4.890625 17.1875 
L 4.890625 26.703125 
z
" id="DejaVuSans-52"/>
      </defs>
      <g transform="translate(365.961913 322.182437)scale(0.1 -0.1)">
       <use xlink:href="#DejaVuSans-49"/>
       <use x="63.623047" xlink:href="#DejaVuSans-52"/>
       <use x="127.246094" xlink:href="#DejaVuSans-48"/>
       <use x="190.869141" xlink:href="#DejaVuSans-48"/>
      </g>
     </g>
    </g>
    <g id="text_6">
     <!-- Epoch -->
     <defs>
      <path d="M 9.8125 72.90625 
L 55.90625 72.90625 
L 55.90625 64.59375 
L 19.671875 64.59375 
L 19.671875 43.015625 
L 54.390625 43.015625 
L 54.390625 34.71875 
L 19.671875 34.71875 
L 19.671875 8.296875 
L 56.78125 8.296875 
L 56.78125 0 
L 9.8125 0 
z
" id="DejaVuSans-69"/>
      <path d="M 18.109375 8.203125 
L 18.109375 -20.796875 
L 9.078125 -20.796875 
L 9.078125 54.6875 
L 18.109375 54.6875 
L 18.109375 46.390625 
Q 20.953125 51.265625 25.265625 53.625 
Q 29.59375 56 35.59375 56 
Q 45.5625 56 51.78125 48.09375 
Q 58.015625 40.1875 58.015625 27.296875 
Q 58.015625 14.40625 51.78125 6.484375 
Q 45.5625 -1.421875 35.59375 -1.421875 
Q 29.59375 -1.421875 25.265625 0.953125 
Q 20.953125 3.328125 18.109375 8.203125 
z
M 48.6875 27.296875 
Q 48.6875 37.203125 44.609375 42.84375 
Q 40.53125 48.484375 33.40625 48.484375 
Q 26.265625 48.484375 22.1875 42.84375 
Q 18.109375 37.203125 18.109375 27.296875 
Q 18.109375 17.390625 22.1875 11.75 
Q 26.265625 6.109375 33.40625 6.109375 
Q 40.53125 6.109375 44.609375 11.75 
Q 48.6875 17.390625 48.6875 27.296875 
z
" id="DejaVuSans-112"/>
      <path d="M 30.609375 48.390625 
Q 23.390625 48.390625 19.1875 42.75 
Q 14.984375 37.109375 14.984375 27.296875 
Q 14.984375 17.484375 19.15625 11.84375 
Q 23.34375 6.203125 30.609375 6.203125 
Q 37.796875 6.203125 41.984375 11.859375 
Q 46.1875 17.53125 46.1875 27.296875 
Q 46.1875 37.015625 41.984375 42.703125 
Q 37.796875 48.390625 30.609375 48.390625 
z
M 30.609375 56 
Q 42.328125 56 49.015625 48.375 
Q 55.71875 40.765625 55.71875 27.296875 
Q 55.71875 13.875 49.015625 6.21875 
Q 42.328125 -1.421875 30.609375 -1.421875 
Q 18.84375 -1.421875 12.171875 6.21875 
Q 5.515625 13.875 5.515625 27.296875 
Q 5.515625 40.765625 12.171875 48.375 
Q 18.84375 56 30.609375 56 
z
" id="DejaVuSans-111"/>
      <path d="M 48.78125 52.59375 
L 48.78125 44.1875 
Q 44.96875 46.296875 41.140625 47.34375 
Q 37.3125 48.390625 33.40625 48.390625 
Q 24.65625 48.390625 19.8125 42.84375 
Q 14.984375 37.3125 14.984375 27.296875 
Q 14.984375 17.28125 19.8125 11.734375 
Q 24.65625 6.203125 33.40625 6.203125 
Q 37.3125 6.203125 41.140625 7.25 
Q 44.96875 8.296875 48.78125 10.40625 
L 48.78125 2.09375 
Q 45.015625 0.34375 40.984375 -0.53125 
Q 36.96875 -1.421875 32.421875 -1.421875 
Q 20.0625 -1.421875 12.78125 6.34375 
Q 5.515625 14.109375 5.515625 27.296875 
Q 5.515625 40.671875 12.859375 48.328125 
Q 20.21875 56 33.015625 56 
Q 37.15625 56 41.109375 55.140625 
Q 45.0625 54.296875 48.78125 52.59375 
z
" id="DejaVuSans-99"/>
      <path d="M 54.890625 33.015625 
L 54.890625 0 
L 45.90625 0 
L 45.90625 32.71875 
Q 45.90625 40.484375 42.875 44.328125 
Q 39.84375 48.1875 33.796875 48.1875 
Q 26.515625 48.1875 22.3125 43.546875 
Q 18.109375 38.921875 18.109375 30.90625 
L 18.109375 0 
L 9.078125 0 
L 9.078125 75.984375 
L 18.109375 75.984375 
L 18.109375 46.1875 
Q 21.34375 51.125 25.703125 53.5625 
Q 30.078125 56 35.796875 56 
Q 45.21875 56 50.046875 50.171875 
Q 54.890625 44.34375 54.890625 33.015625 
z
" id="DejaVuSans-104"/>
     </defs>
     <g transform="translate(220.849063 335.860562)scale(0.1 -0.1)">
      <use xlink:href="#DejaVuSans-69"/>
      <use x="63.183594" xlink:href="#DejaVuSans-112"/>
      <use x="126.660156" xlink:href="#DejaVuSans-111"/>
      <use x="187.841797" xlink:href="#DejaVuSans-99"/>
      <use x="242.822266" xlink:href="#DejaVuSans-104"/>
     </g>
    </g>
   </g>
   <g id="matplotlib.axis_2">
    <g id="ytick_1">
     <g id="line2d_11">
      <path clip-path="url(#p5a2a467822)" d="M 57.6 307.584 
L 414.72 307.584 
" style="fill:none;stroke:#b0b0b0;stroke-linecap:square;stroke-width:0.8;"/>
     </g>
     <g id="line2d_12">
      <defs>
       <path d="M 0 0 
L -3.5 0 
" id="m3afb6c27e0" style="stroke:#000000;stroke-width:0.8;"/>
      </defs>
      <g>
       <use style="stroke:#000000;stroke-width:0.8;" x="57.6" xlink:href="#m3afb6c27e0" y="307.584"/>
      </g>
     </g>
     <g id="text_7">
      <!-- 0 -->
      <g transform="translate(44.2375 311.383219)scale(0.1 -0.1)">
       <use xlink:href="#DejaVuSans-48"/>
      </g>
     </g>
    </g>
    <g id="ytick_2">
     <g id="line2d_13">
      <path clip-path="url(#p5a2a467822)" d="M 57.6 266.686691 
L 414.72 266.686691 
" style="fill:none;stroke:#b0b0b0;stroke-linecap:square;stroke-width:0.8;"/>
     </g>
     <g id="line2d_14">
      <g>
       <use style="stroke:#000000;stroke-width:0.8;" x="57.6" xlink:href="#m3afb6c27e0" y="266.686691"/>
      </g>
     </g>
     <g id="text_8">
      <!-- 2 -->
      <g transform="translate(44.2375 270.48591)scale(0.1 -0.1)">
       <use xlink:href="#DejaVuSans-50"/>
      </g>
     </g>
    </g>
    <g id="ytick_3">
     <g id="line2d_15">
      <path clip-path="url(#p5a2a467822)" d="M 57.6 225.789382 
L 414.72 225.789382 
" style="fill:none;stroke:#b0b0b0;stroke-linecap:square;stroke-width:0.8;"/>
     </g>
     <g id="line2d_16">
      <g>
       <use style="stroke:#000000;stroke-width:0.8;" x="57.6" xlink:href="#m3afb6c27e0" y="225.789382"/>
      </g>
     </g>
     <g id="text_9">
      <!-- 4 -->
      <g transform="translate(44.2375 229.588601)scale(0.1 -0.1)">
       <use xlink:href="#DejaVuSans-52"/>
      </g>
     </g>
    </g>
    <g id="ytick_4">
     <g id="line2d_17">
      <path clip-path="url(#p5a2a467822)" d="M 57.6 184.892073 
L 414.72 184.892073 
" style="fill:none;stroke:#b0b0b0;stroke-linecap:square;stroke-width:0.8;"/>
     </g>
     <g id="line2d_18">
      <g>
       <use style="stroke:#000000;stroke-width:0.8;" x="57.6" xlink:href="#m3afb6c27e0" y="184.892073"/>
      </g>
     </g>
     <g id="text_10">
      <!-- 6 -->
      <g transform="translate(44.2375 188.691292)scale(0.1 -0.1)">
       <use xlink:href="#DejaVuSans-54"/>
      </g>
     </g>
    </g>
    <g id="ytick_5">
     <g id="line2d_19">
      <path clip-path="url(#p5a2a467822)" d="M 57.6 143.994764 
L 414.72 143.994764 
" style="fill:none;stroke:#b0b0b0;stroke-linecap:square;stroke-width:0.8;"/>
     </g>
     <g id="line2d_20">
      <g>
       <use style="stroke:#000000;stroke-width:0.8;" x="57.6" xlink:href="#m3afb6c27e0" y="143.994764"/>
      </g>
     </g>
     <g id="text_11">
      <!-- 8 -->
      <g transform="translate(44.2375 147.793983)scale(0.1 -0.1)">
       <use xlink:href="#DejaVuSans-56"/>
      </g>
     </g>
    </g>
    <g id="ytick_6">
     <g id="line2d_21">
      <path clip-path="url(#p5a2a467822)" d="M 57.6 103.097456 
L 414.72 103.097456 
" style="fill:none;stroke:#b0b0b0;stroke-linecap:square;stroke-width:0.8;"/>
     </g>
     <g id="line2d_22">
      <g>
       <use style="stroke:#000000;stroke-width:0.8;" x="57.6" xlink:href="#m3afb6c27e0" y="103.097456"/>
      </g>
     </g>
     <g id="text_12">
      <!-- 10 -->
      <g transform="translate(37.875 106.896674)scale(0.1 -0.1)">
       <use xlink:href="#DejaVuSans-49"/>
       <use x="63.623047" xlink:href="#DejaVuSans-48"/>
      </g>
     </g>
    </g>
    <g id="ytick_7">
     <g id="line2d_23">
      <path clip-path="url(#p5a2a467822)" d="M 57.6 62.200147 
L 414.72 62.200147 
" style="fill:none;stroke:#b0b0b0;stroke-linecap:square;stroke-width:0.8;"/>
     </g>
     <g id="line2d_24">
      <g>
       <use style="stroke:#000000;stroke-width:0.8;" x="57.6" xlink:href="#m3afb6c27e0" y="62.200147"/>
      </g>
     </g>
     <g id="text_13">
      <!-- 12 -->
      <g transform="translate(37.875 65.999365)scale(0.1 -0.1)">
       <use xlink:href="#DejaVuSans-49"/>
       <use x="63.623047" xlink:href="#DejaVuSans-50"/>
      </g>
     </g>
    </g>
    <g id="text_14">
     <!-- Loss -->
     <defs>
      <path d="M 9.8125 72.90625 
L 19.671875 72.90625 
L 19.671875 8.296875 
L 55.171875 8.296875 
L 55.171875 0 
L 9.8125 0 
z
" id="DejaVuSans-76"/>
      <path d="M 44.28125 53.078125 
L 44.28125 44.578125 
Q 40.484375 46.53125 36.375 47.5 
Q 32.28125 48.484375 27.875 48.484375 
Q 21.1875 48.484375 17.84375 46.4375 
Q 14.5 44.390625 14.5 40.28125 
Q 14.5 37.15625 16.890625 35.375 
Q 19.28125 33.59375 26.515625 31.984375 
L 29.59375 31.296875 
Q 39.15625 29.25 43.1875 25.515625 
Q 47.21875 21.78125 47.21875 15.09375 
Q 47.21875 7.46875 41.1875 3.015625 
Q 35.15625 -1.421875 24.609375 -1.421875 
Q 20.21875 -1.421875 15.453125 -0.5625 
Q 10.6875 0.296875 5.421875 2 
L 5.421875 11.28125 
Q 10.40625 8.6875 15.234375 7.390625 
Q 20.0625 6.109375 24.8125 6.109375 
Q 31.15625 6.109375 34.5625 8.28125 
Q 37.984375 10.453125 37.984375 14.40625 
Q 37.984375 18.0625 35.515625 20.015625 
Q 33.0625 21.96875 24.703125 23.78125 
L 21.578125 24.515625 
Q 13.234375 26.265625 9.515625 29.90625 
Q 5.8125 33.546875 5.8125 39.890625 
Q 5.8125 47.609375 11.28125 51.796875 
Q 16.75 56 26.8125 56 
Q 31.78125 56 36.171875 55.265625 
Q 40.578125 54.546875 44.28125 53.078125 
z
" id="DejaVuSans-115"/>
     </defs>
     <g transform="translate(31.795313 185.495187)rotate(-90)scale(0.1 -0.1)">
      <use xlink:href="#DejaVuSans-76"/>
      <use x="53.962891" xlink:href="#DejaVuSans-111"/>
      <use x="115.144531" xlink:href="#DejaVuSans-115"/>
      <use x="167.244141" xlink:href="#DejaVuSans-115"/>
     </g>
    </g>
   </g>
   <g id="line2d_25">
    <path clip-path="url(#p5a2a467822)" d="M 57.956763 45.261872 
L 58.313526 41.472 
L 59.027053 51.415669 
L 59.383816 44.607454 
L 59.740579 46.878236 
L 60.097343 51.404689 
L 60.454106 53.544926 
L 60.810869 54.729803 
L 61.167632 58.39729 
L 61.524396 57.29022 
L 61.881159 60.914233 
L 62.237922 61.030606 
L 62.951449 65.074471 
L 63.308212 62.765879 
L 63.664975 66.824753 
L 64.021738 72.883853 
L 64.378501 74.736337 
L 64.735265 73.665993 
L 65.092028 79.054112 
L 65.448791 78.67712 
L 65.805554 78.832162 
L 66.162318 79.929069 
L 66.519081 80.581197 
L 66.875844 80.719839 
L 67.232607 82.0444 
L 67.589371 86.598765 
L 67.946134 85.094215 
L 68.302897 89.165092 
L 68.65966 88.552144 
L 69.016424 86.667861 
L 69.373187 91.663918 
L 69.72995 88.120493 
L 70.086713 87.333608 
L 70.443477 85.396507 
L 70.80024 82.384564 
L 71.157003 84.48599 
L 71.513766 82.217028 
L 71.870529 85.878032 
L 72.227293 85.991359 
L 72.584056 87.733809 
L 72.940819 87.754728 
L 73.297582 88.123376 
L 73.654346 92.057902 
L 74.011109 94.183989 
L 74.367872 97.524359 
L 74.724635 98.290733 
L 75.081399 97.685719 
L 75.438162 97.69304 
L 75.794925 91.271733 
L 76.151688 90.293203 
L 76.865215 86.000785 
L 77.221978 89.823641 
L 77.578741 91.931284 
L 77.935504 92.078391 
L 78.292268 90.38966 
L 78.649031 89.786077 
L 79.005794 92.782295 
L 79.362557 93.024816 
L 79.719321 98.161805 
L 80.076084 96.942472 
L 80.432847 96.258976 
L 80.78961 93.808511 
L 81.146374 96.544418 
L 81.503137 102.102547 
L 81.8599 101.288159 
L 82.216663 98.158962 
L 82.573427 99.879737 
L 82.93019 98.346231 
L 83.286953 100.341284 
L 83.643716 104.19428 
L 84.00048 100.531906 
L 84.357243 101.730974 
L 84.714006 105.727091 
L 85.070769 108.125718 
L 85.427532 101.598876 
L 85.784296 103.213011 
L 86.141059 103.534321 
L 86.497822 104.956606 
L 86.854585 102.278221 
L 87.211349 101.007705 
L 87.568112 103.792076 
L 87.924875 100.938977 
L 88.281638 101.310468 
L 88.638402 103.738316 
L 88.995165 109.594791 
L 89.351928 106.583297 
L 89.708691 105.224893 
L 90.065455 101.185874 
L 90.422218 102.523646 
L 90.778981 106.031919 
L 91.135744 107.175797 
L 91.492507 110.108256 
L 91.849271 109.394046 
L 92.206034 110.632601 
L 92.562797 110.80304 
L 92.91956 112.952419 
L 93.276324 117.610704 
L 93.633087 117.373868 
L 93.98985 116.544532 
L 94.346613 116.741984 
L 94.703377 118.275347 
L 95.06014 116.543489 
L 95.416903 119.969436 
L 95.773666 120.820059 
L 96.13043 119.44822 
L 96.843956 122.300951 
L 97.200719 120.883838 
L 97.557483 121.170569 
L 97.914246 118.102719 
L 98.271009 119.395647 
L 98.627772 118.914183 
L 98.984535 119.144374 
L 99.341299 121.564451 
L 99.698062 124.751211 
L 100.054825 124.038963 
L 100.411588 122.997922 
L 100.768352 126.160246 
L 101.125115 125.14861 
L 101.481878 126.043729 
L 101.838641 123.98001 
L 102.195405 126.097652 
L 102.552168 126.397041 
L 102.908931 123.743501 
L 103.265694 125.866562 
L 103.622458 124.315879 
L 103.979221 125.368003 
L 104.335984 123.297516 
L 104.692747 122.694321 
L 105.04951 120.35751 
L 105.406274 119.44775 
L 105.763037 120.591872 
L 106.1198 120.883532 
L 106.833327 127.799696 
L 107.19009 128.129144 
L 107.546853 128.681401 
L 107.903616 125.712686 
L 108.26038 128.363302 
L 108.617143 132.14344 
L 108.973906 133.21908 
L 109.330669 127.683834 
L 109.687433 125.66774 
L 110.044196 127.837546 
L 110.400959 125.437242 
L 110.757722 124.978436 
L 111.114486 127.597786 
L 111.471249 128.74242 
L 111.828012 131.037475 
L 112.184775 128.667128 
L 112.541538 129.186544 
L 112.898302 128.857709 
L 113.255065 128.018967 
L 113.611828 129.058617 
L 113.968591 131.032424 
L 114.325355 128.304001 
L 114.682118 131.74553 
L 115.038881 131.523212 
L 115.395644 133.159247 
L 115.752408 137.542682 
L 116.109171 136.881843 
L 116.465934 138.891496 
L 116.822697 140.01016 
L 117.179461 142.258653 
L 117.892987 143.754166 
L 118.24975 148.39738 
L 118.606513 146.156105 
L 118.963277 141.570392 
L 119.32004 141.529229 
L 119.676803 137.00748 
L 120.033566 140.209003 
L 120.39033 139.806676 
L 121.103856 138.185506 
L 121.460619 139.99969 
L 121.817383 142.666583 
L 122.174146 143.930085 
L 122.530909 143.01785 
L 122.887672 140.432691 
L 123.244436 140.208389 
L 124.314725 146.913237 
L 124.671489 146.934688 
L 125.028252 144.024047 
L 125.385015 144.560333 
L 126.455305 150.355973 
L 126.812068 147.501279 
L 127.168831 148.119217 
L 127.525594 147.201359 
L 128.239121 150.312131 
L 128.595884 147.286691 
L 128.952647 149.401695 
L 129.309411 152.286857 
L 129.666174 149.889703 
L 130.022937 151.414988 
L 130.3797 153.781122 
L 130.736464 152.518316 
L 131.093227 152.222669 
L 131.44999 150.979575 
L 131.806753 153.252545 
L 133.233806 150.237718 
L 133.590569 151.337672 
L 133.947333 149.471937 
L 134.304096 149.607736 
L 134.660859 147.310084 
L 135.017622 148.261949 
L 135.374386 148.564916 
L 135.731149 150.956836 
L 136.087912 150.594343 
L 136.444675 151.534511 
L 136.801439 155.717896 
L 137.158202 155.823759 
L 137.514965 157.132002 
L 137.871728 155.995344 
L 138.228492 158.480182 
L 138.942018 157.374033 
L 139.655544 159.902243 
L 140.012308 159.282915 
L 140.369071 162.215824 
L 140.725834 163.54697 
L 141.082597 161.915025 
L 141.439361 162.958131 
L 142.152887 160.880057 
L 142.50965 158.173739 
L 142.866414 158.362746 
L 143.223177 158.022153 
L 145.006993 146.612785 
L 145.363756 145.867841 
L 145.720519 148.263033 
L 146.077283 147.790975 
L 146.434046 146.041511 
L 146.790809 148.678161 
L 147.147572 144.385865 
L 147.504336 144.547226 
L 147.861099 143.925587 
L 148.217862 144.08071 
L 148.574625 144.463325 
L 148.931389 145.663927 
L 149.288152 145.272805 
L 149.644915 143.090607 
L 150.001678 142.787087 
L 150.358442 146.875857 
L 150.715205 145.136658 
L 151.071968 149.152222 
L 151.428731 150.144431 
L 151.785495 150.756173 
L 152.142258 150.634013 
L 152.499021 151.813226 
L 152.855784 150.019327 
L 153.569311 151.898946 
L 153.926074 154.347121 
L 154.282837 154.893366 
L 154.6396 153.191772 
L 155.353127 157.038307 
L 155.70989 156.51157 
L 156.066653 158.124069 
L 156.423417 157.599459 
L 156.78018 151.613381 
L 157.136943 149.409077 
L 157.493706 156.212774 
L 157.85047 157.442127 
L 158.207233 155.228887 
L 158.563996 157.480611 
L 158.920759 153.374869 
L 159.277522 155.434253 
L 159.634286 156.501243 
L 159.991049 155.052415 
L 160.347812 153.043253 
L 160.704575 153.369246 
L 161.061339 156.150672 
L 161.418102 150.611683 
L 161.774865 152.251359 
L 162.131628 150.427114 
L 162.845155 148.306363 
L 163.201918 146.263338 
L 163.558681 146.970637 
L 163.915445 143.634664 
L 164.272208 143.242479 
L 164.628971 148.024172 
L 164.985734 150.809094 
L 165.342498 150.679041 
L 165.699261 153.114087 
L 166.056024 153.592361 
L 166.412787 153.265673 
L 166.76955 154.332357 
L 167.126314 151.435478 
L 167.483077 149.995177 
L 167.83984 149.880378 
L 168.196603 153.473043 
L 168.91013 156.712437 
L 169.266893 158.084562 
L 170.337183 165.533516 
L 170.693946 163.920956 
L 171.050709 164.57472 
L 171.407473 163.743911 
L 171.764236 163.413195 
L 172.120999 165.771702 
L 172.477762 165.568606 
L 172.834525 165.149122 
L 173.548052 170.638093 
L 173.904815 170.460701 
L 174.261578 169.159758 
L 175.331868 174.828738 
L 175.688631 175.217917 
L 176.045395 171.971898 
L 176.402158 171.041157 
L 176.758921 173.047211 
L 177.115684 171.909039 
L 177.472448 173.541905 
L 177.829211 171.59141 
L 178.185974 168.068945 
L 178.542737 168.334757 
L 178.8995 169.647274 
L 179.256264 168.547116 
L 179.613027 162.598889 
L 179.96979 164.522024 
L 180.326553 165.111129 
L 180.683317 164.117283 
L 181.396843 166.063709 
L 181.753606 164.067102 
L 182.11037 166.629012 
L 182.467133 165.600567 
L 182.823896 165.907543 
L 183.180659 167.904211 
L 183.537423 168.159839 
L 184.250949 169.76375 
L 184.607712 169.395572 
L 185.321239 175.362142 
L 185.678002 172.194584 
L 186.034765 175.479619 
L 186.391528 174.887344 
L 186.748292 176.443794 
L 187.105055 174.337828 
L 187.461818 174.944764 
L 187.818581 173.617053 
L 188.175345 169.110927 
L 188.888871 165.831535 
L 189.245634 167.232452 
L 189.602398 168.028886 
L 189.959161 167.654573 
L 190.315924 167.034202 
L 190.672687 167.019643 
L 191.029451 169.761991 
L 191.386214 169.127858 
L 191.742977 169.226707 
L 192.09974 169.775958 
L 192.456503 171.301223 
L 192.813267 169.118002 
L 193.526793 173.074203 
L 193.883556 176.43271 
L 194.24032 174.691835 
L 194.597083 176.388132 
L 195.310609 175.935624 
L 196.380899 171.804689 
L 196.737662 170.414835 
L 197.094426 166.889323 
L 197.451189 165.366185 
L 197.807952 168.551431 
L 198.164715 170.357149 
L 198.878242 168.052627 
L 199.235005 169.539796 
L 199.591768 168.483889 
L 199.948531 168.953308 
L 200.305295 161.269276 
L 200.662058 164.241591 
L 201.018821 166.099024 
L 201.375584 169.279771 
L 201.732348 167.811251 
L 202.089111 168.231287 
L 202.445874 168.277664 
L 202.802637 165.616333 
L 203.159401 164.347535 
L 203.516164 168.309462 
L 203.872927 167.165564 
L 204.586454 170.423403 
L 204.943217 168.26971 
L 205.29998 167.981302 
L 205.656743 171.572208 
L 206.37027 166.396143 
L 206.727033 168.694715 
L 207.083796 169.601633 
L 207.440559 172.138861 
L 207.797323 172.129025 
L 208.154086 171.376351 
L 208.510849 173.390932 
L 208.867612 173.653759 
L 209.224376 171.094446 
L 209.581139 169.715655 
L 209.937902 168.970158 
L 210.294665 164.887175 
L 210.651429 167.039519 
L 211.008192 164.513067 
L 211.364955 165.603348 
L 211.721718 167.63298 
L 212.078482 166.823049 
L 212.435245 168.267808 
L 212.792008 168.846566 
L 213.148771 170.600284 
L 213.505534 171.764876 
L 213.862298 170.044755 
L 214.219061 170.482847 
L 214.575824 171.274087 
L 214.932587 173.203418 
L 215.289351 173.093425 
L 215.646114 169.920284 
L 216.002877 172.321529 
L 216.35964 170.900654 
L 216.716404 173.582147 
L 217.073167 173.41498 
L 217.42993 174.532008 
L 217.786693 174.721506 
L 218.50022 176.9345 
L 218.856983 174.985641 
L 219.213746 176.399563 
L 219.570509 172.770868 
L 219.927273 171.191434 
L 220.640799 171.336354 
L 220.997562 171.681731 
L 221.354326 171.633636 
L 221.711089 173.485528 
L 222.067852 174.606461 
L 222.424615 176.14465 
L 222.781379 176.007235 
L 223.138142 176.347869 
L 223.494905 173.828533 
L 224.565195 181.107682 
L 225.278721 180.912765 
L 225.635485 179.350917 
L 226.349011 181.545365 
L 226.705774 179.214239 
L 227.062537 180.072612 
L 227.419301 179.859312 
L 228.48959 177.429787 
L 228.846354 177.346888 
L 229.203117 180.163895 
L 229.55988 177.380567 
L 229.916643 176.261719 
L 230.273407 179.054228 
L 230.63017 175.556404 
L 230.986933 177.199985 
L 231.343696 177.602598 
L 232.057223 174.988626 
L 232.413986 175.991142 
L 232.770749 173.767003 
L 233.127512 174.280183 
L 233.484276 174.230493 
L 233.841039 170.368928 
L 234.554565 168.509879 
L 234.911329 171.749662 
L 235.268092 173.385738 
L 235.624855 172.974352 
L 235.981618 175.841335 
L 236.695145 175.97648 
L 237.051908 178.082692 
L 237.408671 177.65282 
L 237.765435 180.386867 
L 238.122198 180.030999 
L 238.478961 181.18782 
L 238.835724 179.744329 
L 239.192488 180.09214 
L 239.549251 182.688158 
L 239.906014 177.197981 
L 240.262777 177.123139 
L 240.61954 176.25313 
L 240.976304 174.755205 
L 241.333067 174.147737 
L 241.68983 173.109231 
L 242.046593 171.046187 
L 242.403357 168.300096 
L 242.76012 168.09651 
L 243.116883 169.949833 
L 243.473646 172.548775 
L 243.83041 174.227691 
L 244.187173 172.498389 
L 244.543936 173.289118 
L 244.900699 173.773097 
L 245.257463 177.196468 
L 245.614226 176.844055 
L 245.970989 175.198286 
L 246.327752 175.599162 
L 246.684515 175.221659 
L 247.041279 178.633149 
L 247.398042 178.672717 
L 247.754805 174.560493 
L 248.111568 173.58407 
L 248.468332 173.424488 
L 248.825095 175.372713 
L 249.538621 175.073038 
L 249.895385 175.26591 
L 250.252148 172.769334 
L 250.608911 173.218693 
L 250.965674 174.357663 
L 251.322438 175.943067 
L 252.035964 176.725515 
L 252.392727 177.776862 
L 252.749491 174.852909 
L 253.106254 177.460971 
L 253.463017 177.052816 
L 253.81978 178.124755 
L 254.176543 180.772365 
L 254.89007 182.821299 
L 255.246833 181.679283 
L 255.603596 182.298039 
L 255.96036 182.439809 
L 256.317123 181.403799 
L 256.673886 177.188513 
L 257.387413 175.915646 
L 257.744176 175.853564 
L 258.100939 173.483299 
L 258.814466 178.420115 
L 259.171229 177.757558 
L 259.527992 178.477453 
L 259.884755 178.287281 
L 260.241518 180.251517 
L 260.598282 179.810133 
L 260.955045 179.564933 
L 261.311808 177.647401 
L 261.668571 177.738275 
L 262.025335 177.513708 
L 262.382098 179.410873 
L 262.738861 180.327463 
L 263.095624 180.139193 
L 263.452388 180.533484 
L 264.165914 181.680837 
L 264.522677 180.202665 
L 264.879441 177.715189 
L 265.236204 174.038664 
L 265.592967 171.929037 
L 265.94973 172.220983 
L 266.306494 172.006763 
L 266.663257 170.896094 
L 267.02002 171.322571 
L 267.376783 173.47469 
L 267.733546 174.722896 
L 268.09031 172.504728 
L 268.447073 172.694839 
L 268.803836 172.741422 
L 269.160599 175.123915 
L 269.517363 170.083096 
L 269.874126 167.879222 
L 270.230889 167.18863 
L 270.587652 165.756222 
L 270.944416 167.573004 
L 271.301179 166.261877 
L 271.657942 164.224966 
L 272.014705 164.650359 
L 272.371469 162.278397 
L 272.728232 161.724709 
L 273.084995 164.452989 
L 273.441758 166.11117 
L 273.798521 165.485135 
L 274.155285 166.421928 
L 274.512048 165.849448 
L 274.868811 169.057515 
L 275.225574 168.542536 
L 275.582338 169.226932 
L 275.939101 170.938729 
L 276.295864 171.719745 
L 276.652627 170.006639 
L 277.722917 172.545155 
L 278.07968 174.002715 
L 278.436444 176.773753 
L 278.793207 178.042183 
L 279.14997 179.742018 
L 279.506733 178.190763 
L 280.22026 180.058277 
L 280.577023 178.550496 
L 280.933786 179.819089 
L 281.290549 181.542645 
L 281.647313 182.585424 
L 282.004076 185.638061 
L 282.360839 182.938409 
L 282.717602 181.978508 
L 283.074366 180.468498 
L 283.787892 181.715702 
L 284.144655 181.622497 
L 284.501419 184.830543 
L 284.858182 186.331352 
L 285.214945 186.1248 
L 285.571708 185.496331 
L 286.285235 181.975645 
L 286.641998 182.328957 
L 286.998761 181.408441 
L 287.712288 178.024066 
L 288.425814 177.63779 
L 288.782577 177.575811 
L 289.139341 177.02838 
L 289.496104 177.531826 
L 289.852867 177.232682 
L 290.20963 175.501867 
L 290.566394 175.505303 
L 291.27992 172.700422 
L 291.636683 173.801316 
L 292.35021 169.599608 
L 292.706973 170.335453 
L 293.063736 168.927686 
L 293.4205 170.481866 
L 293.777263 168.320627 
L 294.134026 168.7132 
L 294.490789 170.20585 
L 295.204316 175.105777 
L 295.561079 174.006621 
L 295.917842 174.124282 
L 296.274605 174.101216 
L 296.988132 176.976951 
L 297.344895 176.684413 
L 297.701658 182.556837 
L 298.058422 182.967344 
L 298.415185 182.062777 
L 298.771948 183.384721 
L 299.128711 183.862361 
L 299.485475 183.922153 
L 299.842238 183.416396 
L 300.555764 179.776536 
L 300.912527 181.908656 
L 301.269291 180.519558 
L 301.626054 179.963109 
L 302.33958 177.520947 
L 303.053107 183.717094 
L 303.40987 182.873812 
L 304.123397 185.128746 
L 304.48016 187.757748 
L 305.193686 188.798707 
L 305.55045 188.820403 
L 306.263976 192.05947 
L 306.620739 188.798462 
L 306.977502 189.20265 
L 307.334266 187.417053 
L 307.691029 188.179542 
L 308.047792 189.461202 
L 308.404555 188.641559 
L 308.761319 188.138849 
L 309.118082 191.34573 
L 309.474845 185.857045 
L 309.831608 186.045214 
L 310.188372 187.094455 
L 310.545135 183.935035 
L 310.901898 186.387749 
L 311.258661 187.140894 
L 311.615425 186.459565 
L 312.328951 191.12376 
L 312.685714 189.030677 
L 313.042478 190.231565 
L 313.399241 188.926143 
L 313.756004 188.209152 
L 314.112767 188.755744 
L 314.46953 188.638737 
L 314.826294 189.006772 
L 315.183057 185.180338 
L 315.53982 183.846759 
L 315.896583 188.473123 
L 316.253347 186.279167 
L 316.61011 186.388076 
L 316.966873 184.204283 
L 317.323636 186.478725 
L 317.6804 186.284749 
L 318.037163 187.470955 
L 318.393926 184.391572 
L 318.750689 184.309389 
L 319.464216 187.583975 
L 319.820979 189.557352 
L 320.177742 188.440303 
L 320.891269 184.696318 
L 321.248032 181.58252 
L 321.604795 182.169355 
L 321.961558 181.906222 
L 322.318322 181.791117 
L 322.675085 181.057153 
L 323.031848 183.403922 
L 324.102138 176.565238 
L 324.458901 177.431566 
L 324.815664 176.962392 
L 325.529191 176.692163 
L 325.885954 178.051773 
L 326.956244 175.022837 
L 327.313007 173.537835 
L 327.66977 173.776573 
L 328.026533 173.793034 
L 328.383297 174.5763 
L 328.74006 178.060403 
L 329.096823 176.197592 
L 329.453586 177.17563 
L 329.81035 180.243215 
L 330.167113 182.276936 
L 330.523876 181.09848 
L 330.880639 179.333495 
L 331.237403 180.712982 
L 331.950929 182.654868 
L 332.307692 182.680531 
L 332.664456 181.904341 
L 333.021219 182.847576 
L 333.377982 180.670551 
L 333.734745 181.278857 
L 334.091508 184.503651 
L 334.448272 183.423655 
L 335.161798 185.811424 
L 335.518561 184.868864 
L 336.232088 188.221319 
L 336.588851 186.845451 
L 336.945614 184.806618 
L 337.302378 185.433267 
L 337.659141 186.774638 
L 338.015904 188.552014 
L 338.372667 188.409467 
L 338.729431 187.805863 
L 339.086194 188.788237 
L 339.442957 189.322826 
L 339.79972 189.089344 
L 340.156484 187.661741 
L 340.513247 184.83907 
L 340.87001 181.043493 
L 341.226773 185.311434 
L 341.583536 184.277141 
L 341.9403 183.911335 
L 342.297063 182.913073 
L 342.653826 179.178924 
L 343.010589 178.635255 
L 343.367353 180.904749 
L 343.724116 180.104062 
L 344.080879 181.478089 
L 344.437642 179.766332 
L 344.794406 180.374045 
L 345.151169 177.24761 
L 345.507932 177.33652 
L 345.864695 177.104817 
L 346.221459 175.412425 
L 346.578222 176.57536 
L 346.934985 178.218655 
L 347.291748 177.593805 
L 347.648511 178.921414 
L 348.005275 181.361081 
L 348.362038 180.755597 
L 348.718801 180.774553 
L 349.075564 180.931598 
L 349.432328 180.895016 
L 350.145854 185.005134 
L 350.502617 182.235875 
L 350.859381 185.76337 
L 351.216144 187.245182 
L 351.572907 189.575919 
L 351.92967 189.147152 
L 352.286434 186.631702 
L 352.643197 187.349511 
L 352.99996 189.643175 
L 353.713487 184.58338 
L 354.07025 184.690266 
L 354.427013 182.754596 
L 354.783776 182.929555 
L 355.140539 183.236509 
L 355.497303 182.910087 
L 355.854066 182.112406 
L 356.210829 179.05934 
L 356.567592 179.159252 
L 356.924356 181.786311 
L 357.281119 182.452426 
L 357.994645 187.444658 
L 358.351409 187.393087 
L 358.708172 186.77973 
L 359.064935 187.33442 
L 359.421698 183.782325 
L 359.778462 184.207596 
L 360.135225 184.958961 
L 360.491988 182.285442 
L 361.205514 180.014394 
L 361.562278 177.78179 
L 362.275804 182.73061 
L 362.632567 182.384353 
L 362.989331 184.53003 
L 363.346094 183.346503 
L 363.702857 181.694108 
L 364.05962 182.01732 
L 364.773147 185.255773 
L 365.12991 184.878966 
L 365.486673 187.008509 
L 365.843437 184.935384 
L 366.2002 185.79482 
L 366.556963 187.47073 
L 366.913726 187.593361 
L 367.27049 188.151752 
L 367.627253 186.952562 
L 367.984016 186.330779 
L 368.340779 183.627017 
L 368.697542 184.763799 
L 369.054306 184.267265 
L 369.411069 184.239966 
L 369.767832 186.752042 
L 370.124595 184.579188 
L 370.481359 184.169009 
L 371.194885 184.266713 
L 371.908412 183.003967 
L 372.265175 184.704702 
L 372.621938 184.128009 
L 372.978701 184.919659 
L 373.335465 184.431467 
L 373.692228 186.669164 
L 374.048991 186.989287 
L 374.405754 186.934444 
L 374.762517 188.206453 
L 375.119281 190.568149 
L 375.476044 186.696749 
L 376.18957 185.976465 
L 376.546334 184.101937 
L 376.903097 183.562379 
L 377.25986 183.810585 
L 377.616623 180.67599 
L 377.973387 182.232399 
L 378.686913 180.31319 
L 379.043676 180.869434 
L 379.40044 180.278775 
L 379.757203 182.10621 
L 380.113966 182.390078 
L 380.827493 186.609617 
L 381.184256 185.585344 
L 381.541019 185.692904 
L 381.897782 185.203936 
L 382.254545 185.609535 
L 382.611309 182.364579 
L 382.968072 182.409055 
L 383.324835 181.022595 
L 383.681598 181.25436 
L 384.038362 176.257649 
L 384.395125 174.810948 
L 384.751888 176.101892 
L 385.108651 176.273886 
L 385.465415 176.845671 
L 385.822178 176.643454 
L 386.178941 177.097169 
L 386.535704 181.284379 
L 386.892468 182.122017 
L 387.249231 180.704659 
L 387.605994 184.594014 
L 387.962757 182.415414 
L 388.31952 182.407439 
L 388.676284 183.311617 
L 389.033047 185.14944 
L 389.38981 184.953317 
L 389.746573 183.556347 
L 390.103337 185.165697 
L 390.4601 185.158826 
L 390.816863 185.312436 
L 391.53039 181.121444 
L 391.887153 181.123611 
L 392.243916 180.19831 
L 392.600679 182.681574 
L 392.957443 181.035396 
L 393.314206 182.28532 
L 393.670969 184.867842 
L 394.027732 185.286671 
L 394.384496 186.067114 
L 395.098022 189.416256 
L 395.454785 189.173449 
L 395.811548 188.245182 
L 396.168312 189.960947 
L 396.525075 187.329308 
L 396.881838 189.558395 
L 397.238601 190.136683 
L 397.595365 190.430326 
L 397.952128 188.156497 
L 398.308891 188.861587 
L 398.665654 191.180423 
L 399.022418 188.542383 
L 399.379181 190.548457 
L 400.092707 192.657552 
L 400.449471 189.774169 
L 400.806234 189.427769 
L 401.162997 184.960474 
L 401.51976 184.719568 
L 401.876523 185.36865 
L 402.233287 186.934015 
L 402.59005 184.549599 
L 402.946813 183.926938 
L 403.303576 185.35771 
L 403.66034 184.537821 
L 404.017103 187.579149 
L 404.373866 187.372761 
L 405.087393 190.998389 
L 405.444156 190.553733 
L 405.800919 188.194674 
L 406.157682 189.289679 
L 406.514446 187.706422 
L 406.871209 186.854101 
L 407.584735 185.855573 
L 407.941499 185.636118 
L 408.655025 191.338777 
L 409.011788 191.280785 
L 409.368551 189.934712 
L 409.725315 190.498972 
L 410.082078 193.869932 
L 410.795604 195.188421 
L 411.152368 195.346673 
L 412.222657 198.606352 
L 412.579421 198.328189 
L 412.936184 194.380474 
L 413.292947 197.87476 
L 413.64971 196.792781 
L 414.006474 196.211426 
L 414.363237 196.308864 
L 414.72 197.936822 
L 414.72 197.936822 
" style="fill:none;stroke:#1f77b4;stroke-linecap:square;stroke-width:1.5;"/>
   </g>
   <g id="patch_3">
    <path d="M 57.6 307.584 
L 57.6 41.472 
" style="fill:none;stroke:#000000;stroke-linecap:square;stroke-linejoin:miter;stroke-width:0.8;"/>
   </g>
   <g id="patch_4">
    <path d="M 414.72 307.584 
L 414.72 41.472 
" style="fill:none;stroke:#000000;stroke-linecap:square;stroke-linejoin:miter;stroke-width:0.8;"/>
   </g>
   <g id="patch_5">
    <path d="M 57.6 307.584 
L 414.72 307.584 
" style="fill:none;stroke:#000000;stroke-linecap:square;stroke-linejoin:miter;stroke-width:0.8;"/>
   </g>
   <g id="patch_6">
    <path d="M 57.6 41.472 
L 414.72 41.472 
" style="fill:none;stroke:#000000;stroke-linecap:square;stroke-linejoin:miter;stroke-width:0.8;"/>
   </g>
  </g>
 </g>
 <defs>
  <clipPath id="p5a2a467822">
   <rect height="266.112" width="357.12" x="57.6" y="41.472"/>
  </clipPath>
 </defs>
</svg>
